<svg width="193" height="26" fill="none" xmlns="http://www.w3.org/2000/svg"><path d="M11.934 25L17 7.626 22.032 25h4.522l6.732-23.8h-4.114l-4.998 18.598L18.802 1.2h-3.604L9.792 19.798 4.794 1.2H.68L7.412 25h4.522zm43.274-3.128c2.413-2.414 3.604-5.338 3.604-8.772s-1.19-6.358-3.604-8.738C52.828 1.948 49.904.758 46.469.758c-3.434 0-6.358 1.19-8.772 3.604-2.38 2.38-3.57 5.304-3.57 8.738 0 3.434 1.19 6.358 3.57 8.772 2.414 2.38 5.338 3.57 8.772 3.57s6.358-1.19 8.739-3.57zM40.452 19.22c-1.599-1.632-2.414-3.672-2.414-6.12s.816-4.488 2.414-6.086c1.632-1.632 3.638-2.448 6.017-2.448 2.38 0 4.386.816 5.984 2.448 1.633 1.598 2.448 3.638 2.448 6.086 0 2.448-.816 4.488-2.448 6.12-1.598 1.598-3.604 2.414-5.984 2.414s-4.386-.816-6.017-2.414zm41.816 2.652c2.414-2.414 3.604-5.338 3.604-8.772s-1.19-6.358-3.604-8.738C79.888 1.948 76.964.758 73.53.758c-3.434 0-6.358 1.19-8.772 3.604-2.38 2.38-3.57 5.304-3.57 8.738 0 3.434 1.19 6.358 3.57 8.772 2.414 2.38 5.338 3.57 8.772 3.57s6.358-1.19 8.738-3.57zM67.512 19.22c-1.598-1.632-2.414-3.672-2.414-6.12s.816-4.488 2.414-6.086c1.632-1.632 3.638-2.448 6.018-2.448s4.386.816 5.984 2.448c1.632 1.598 2.448 3.638 2.448 6.086 0 2.448-.816 4.488-2.448 6.12-1.598 1.598-3.604 2.414-5.984 2.414s-4.386-.816-6.018-2.414zM89.439 1.2V25h9.35c3.264 0 5.984-1.156 8.126-3.434 2.176-2.312 3.264-5.134 3.264-8.466 0-3.366-1.088-6.188-3.264-8.466-2.142-2.278-4.862-3.434-8.126-3.434h-9.35zm3.91 20.06V4.94h5.44c2.244 0 4.08.782 5.474 2.312 1.428 1.53 2.142 3.468 2.142 5.848 0 2.346-.714 4.318-2.142 5.848-1.394 1.53-3.23 2.312-5.474 2.312h-5.44zm27.42 4.182c2.516 0 4.556-.612 6.086-1.87 1.564-1.258 2.346-2.992 2.346-5.134.17-2.278-1.19-3.91-2.448-4.896-.374-.306-.952-.646-1.734-.952-.748-.306-1.326-.544-1.768-.68-.408-.17-1.054-.374-1.972-.68-3.638-1.122-4.794-1.938-4.794-3.706 0-1.802 1.462-2.958 3.74-2.958 2.346 0 4.012 1.122 4.998 3.332l3.298-1.904c-1.53-3.264-4.488-5.236-8.296-5.236-2.108 0-3.91.612-5.406 1.87-1.496 1.224-2.244 2.89-2.244 4.998 0 2.142.782 3.706 2.312 4.794 1.598 1.054 2.72 1.496 4.998 2.176 2.006.612 3.434 1.19 4.216 1.7s1.19 1.224 1.19 2.21c0 1.87-1.462 3.128-4.42 3.128-2.992 0-4.964-1.326-5.916-4.012l-3.366 1.972c1.258 3.638 4.59 5.848 9.18 5.848zm31.524-3.57c2.414-2.414 3.604-5.338 3.604-8.772s-1.19-6.358-3.604-8.738c-2.38-2.414-5.304-3.604-8.738-3.604-3.434 0-6.358 1.19-8.772 3.604-2.38 2.38-3.57 5.304-3.57 8.738 0 3.434 1.19 6.358 3.57 8.772 2.414 2.38 5.338 3.57 8.772 3.57s6.358-1.19 8.738-3.57zm-14.756-2.652c-1.598-1.632-2.414-3.672-2.414-6.12s.816-4.488 2.414-6.086c1.632-1.632 3.638-2.448 6.018-2.448s4.386.816 5.984 2.448c1.632 1.598 2.448 3.638 2.448 6.086 0 2.448-.816 4.488-2.448 6.12-1.598 1.598-3.604 2.414-5.984 2.414s-4.386-.816-6.018-2.414zM173.404 1.2h-13.94V25h3.91v-9.656h9.69v-3.74h-9.69V4.94h10.03V1.2zm1.788 0v3.74h6.732V25h3.91V4.94h6.698V1.2h-17.34z" fill="#4E4E4E"/></svg>