<svg width="24" height="24" viewBox="0 0 24 24" fill="none" xmlns="http://www.w3.org/2000/svg">
<path fill-rule="evenodd" clip-rule="evenodd" d="M12.0005 24C18.6279 24 24.0005 18.6274 24.0005 12C24.0005 5.37258 18.6279 0 12.0005 0C5.37307 0 0.000488281 5.37258 0.000488281 12C0.000488281 18.6274 5.37307 24 12.0005 24ZM9.76541 6.45606C8.41041 6.87006 7.52341 8.00006 7.71441 9.25806H7.71341C7.95087 10.8045 8.4781 12.2922 9.26741 13.6431C10.0504 14.995 11.0754 16.1912 12.2914 17.1721C13.2834 17.9691 14.7094 17.7711 15.7464 16.8041C16.1254 16.4511 16.1654 15.8631 15.8354 15.4631L15.0434 14.5021C14.9168 14.3481 14.7472 14.2355 14.5562 14.1787C14.3652 14.1218 14.1615 14.1234 13.9714 14.1831L12.2984 14.7101C12.216 14.736 12.1283 14.7401 12.0438 14.7221C11.9594 14.704 11.881 14.6644 11.8164 14.6071L11.7764 14.5711C11.2686 14.0937 10.8321 13.5458 10.4804 12.9441C10.1575 12.3778 9.91233 11.7707 9.75141 11.1391L9.72041 11.0091L9.70841 10.9571C9.69098 10.8723 9.69582 10.7844 9.72246 10.702C9.74909 10.6197 9.79662 10.5456 9.86041 10.4871L11.1544 9.30206C11.3012 9.16727 11.4044 8.99167 11.4508 8.79781C11.4971 8.60395 11.4844 8.40067 11.4144 8.21406L10.9794 7.05406C10.8911 6.81862 10.7164 6.62569 10.4909 6.51458C10.2653 6.40347 10.0059 6.38254 9.76541 6.45606ZM11.8294 10.0391L10.7574 11.0231V11.0241C10.895 11.5202 11.0931 11.9974 11.3474 12.4451C11.6106 12.8878 11.9248 13.2983 12.2834 13.6681L13.6724 13.2311C14.0525 13.1114 14.4596 13.1081 14.8416 13.2214C15.2236 13.3347 15.563 13.5595 15.8164 13.8671L16.6084 14.8291C17.2734 15.6371 17.1954 16.8231 16.4294 17.5371C15.1394 18.7391 13.1534 19.1471 11.6654 17.9521C10.3539 16.8946 9.24812 15.6048 8.40341 14.1471C7.38641 12.3991 6.92541 10.7251 6.72541 9.40906C6.43941 7.52406 7.79041 6.01506 9.47341 5.50006C9.95724 5.35204 10.4793 5.39408 10.9332 5.6176C11.3871 5.84112 11.7387 6.22931 11.9164 6.70306L12.3504 7.86306C12.4903 8.23638 12.5155 8.64301 12.4227 9.03073C12.3298 9.41846 12.1232 9.76959 11.8294 10.0391Z" fill="white"/>
</svg>
