<svg width="116" height="71" fill="none" xmlns="http://www.w3.org/2000/svg"><path d="M64 35.5c25.6-3.2 27.667-24 25.5-34h18L110 4v31.5H64z" fill="#F7F1E8"/><path d="M2 56h112v7H2v-7z" fill="#CFA56F" fill-opacity=".16"/><path d="M1 64h114V39a4 4 0 00-4-4H5a4 4 0 00-4 4v25zm5-29h104V5a4 4 0 00-4-4H10a4 4 0 00-4 4v30z" stroke="#4E4E4E" stroke-width="2"/><rect x="10" y="63" width="2" height="8" rx="1" fill="#4E4E4E"/><rect x="104" y="63" width="2" height="8" rx="1" fill="#4E4E4E"/><path d="M17 26.64a1 1 0 01.804-.98 41.791 41.791 0 0116.392 0l1.608.32 2.218.444a40.682 40.682 0 0015.956 0 .854.854 0 011.022.838V35H17v-8.36zm82 0a1 1 0 00-.804-.98 41.791 41.791 0 00-16.392 0l-1.608.32-2.218.444a40.682 40.682 0 01-15.956 0 .854.854 0 00-1.022.838V35h38v-8.36z" stroke="#4E4E4E" stroke-width="2"/><rect x="116" y="54" width="2" height="116" rx="1" transform="rotate(90 116 54)" fill="#4E4E4E"/></svg>