<svg width="106" height="71" fill="none" xmlns="http://www.w3.org/2000/svg"><path d="M0 56h105v7H0v-7z" fill="#CFA56F" fill-opacity=".16"/><path d="M59 35.5c25.6-3.2 27.667-24 25.5-34h13L100 4l-1 31.5H59z" fill="#F7F1E8"/><path d="M1 64h104V39a4 4 0 00-4-4H5a4 4 0 00-4 4v25zm5-29h94V5a4 4 0 00-4-4H10a4 4 0 00-4 4v30z" stroke="#4E4E4E" stroke-width="2"/><rect x="10" y="63" width="2" height="8" rx="1" fill="#4E4E4E"/><rect x="94" y="63" width="2" height="8" rx="1" fill="#4E4E4E"/><path d="M17 26.104c0-.19.13-.355.313-.402a29.255 29.255 0 0113.442-.176l2.028.45 1.87.416a33.872 33.872 0 0014.695 0 .536.536 0 01.652.523V35H17v-8.896zm72 0c0-.19-.13-.355-.313-.402a29.255 29.255 0 00-13.442-.176l-2.028.45-1.87.416a33.872 33.872 0 01-14.695 0 .536.536 0 00-.652.523V35h33v-8.896z" stroke="#4E4E4E" stroke-width="2"/><rect x="106" y="54" width="2" height="106" rx="1" transform="rotate(90 106 54)" fill="#4E4E4E"/></svg>