<svg width="119" height="65" fill="none" xmlns="http://www.w3.org/2000/svg"><path d="M14 20C12.777 9.983 4.824 9.174 1 10.022V2.978L1.956 2H14v18z" fill="#F7F1E8"/><path d="M1 58h13V3a2 2 0 00-2-2H3a2 2 0 00-2 2v55z" stroke="#4E4E4E" stroke-width="2"/><rect x="23" y="57" width="2" height="8" rx="1" fill="#4E4E4E"/><rect x="107" y="57" width="2" height="8" rx="1" fill="#4E4E4E"/><path d="M18.152 28.485a4 4 0 012.811-4.824l4.926-1.367a7.586 7.586 0 019.37 5.713l.063.283-16.1 4.472-1.07-4.277z" stroke="#4E4E4E" stroke-width="2"/><path d="M14 58h104v-9H14v9zm0-20.63v11.326l100.565-26.982-2.832-10.57a4 4 0 00-4.944-2.816L16.92 33.518A4 4 0 0014 37.37z" fill="#fff" stroke="#4E4E4E" stroke-width="2"/><rect x="119" y="48" width="2" height="106" rx="1" transform="rotate(90 119 48)" fill="#4E4E4E"/><path d="M14 50h105v7H14v-7z" fill="#CFA56F" fill-opacity=".16"/></svg>