<svg width="116" height="71" fill="none" xmlns="http://www.w3.org/2000/svg"><path d="M72.5 63c12.5-1.5 17-1.5 22-8h18l2.5 2.5-.5 6c-7.667 0-23.6-.5-42-.5z" fill="#F7F1E8"/><path d="M2 54a7 7 0 017-7h98a7 7 0 017 7H2z" fill="#CFA56F" fill-opacity=".16"/><path stroke="#4E4E4E" stroke-width="2" d="M1 9h114v55H1z"/><rect width="2" height="71" rx="1" fill="#4E4E4E"/><rect x="19" y="8" width="2" height="46" rx="1" fill="#4E4E4E"/><rect x="38" y="8" width="2" height="46" rx="1" fill="#4E4E4E"/><rect x="57" y="8" width="2" height="46" rx="1" fill="#4E4E4E"/><rect x="76" y="8" width="2" height="46" rx="1" fill="#4E4E4E"/><rect x="95" y="8" width="2" height="46" rx="1" fill="#4E4E4E"/><rect x="114" width="2" height="71" rx="1" fill="#4E4E4E"/><path d="M1 54h115" stroke="#4E4E4E" stroke-width="2"/></svg>