<svg width="130" height="129" fill="none" xmlns="http://www.w3.org/2000/svg"><path d="M118.889 68.814l.495-1.746 10.589-.489-.622 2.199-7.048.142 5.9 4.016-.436 1.54-7.133.34 5.926 3.816-.611 2.157-8.757-5.983.494-1.746 7.014-.285-5.811-3.961zm-2.021 17.933c-.84.16-1.501.612-1.982 1.355-.475.736-.614 1.52-.414 2.352.199.832.694 1.503 1.486 2.015.791.512 1.607.688 2.448.529.84-.16 1.498-.608 1.974-1.343.481-.744.621-1.532.422-2.364-.196-.818-.694-1.486-1.494-2.003-.799-.517-1.613-.697-2.44-.54zm3.58-1.222c1.232.796 1.997 1.875 2.296 3.236.315 1.372.067 2.685-.745 3.94-.807 1.248-1.9 2.01-3.28 2.285-1.386.284-2.686.032-3.901-.754-1.208-.78-1.97-1.863-2.288-3.248-.315-1.372-.07-2.681.737-3.929.812-1.255 1.908-2.02 3.288-2.296 1.38-.276 2.678-.02 3.893.766zm-11.97 14.778c-.852-.079-1.612.172-2.279.753-.661.576-1.011 1.29-1.05 2.145-.039.854.251 1.637.87 2.348.619.711 1.355 1.106 2.206 1.185.852.08 1.608-.168 2.269-.744.668-.581 1.021-1.299 1.06-2.154.038-.841-.255-1.62-.881-2.339-.625-.718-1.357-1.116-2.195-1.194zm3.779-.184c.963 1.106 1.4 2.354 1.31 3.745-.077 1.405-.679 2.599-1.807 3.581-1.12.975-2.382 1.404-3.784 1.287-1.41-.111-2.59-.712-3.54-1.804-.944-1.085-1.378-2.336-1.3-3.755.077-1.405.676-2.596 1.796-3.571 1.128-.982 2.393-1.414 3.795-1.297 1.403.118 2.579.722 3.53 1.814zm-17.834 8.9l3.378-1.61 4.303 9.026-3.379 1.61c-1.46.697-2.852.843-4.173.439-1.322-.404-2.298-1.268-2.929-2.592-.635-1.332-.694-2.638-.175-3.919.513-1.268 1.505-2.253 2.975-2.954zm5.03 6.637l-2.716-5.699-1.366.652c-1.006.479-1.67 1.102-1.99 1.866-.326.778-.276 1.614.15 2.508.426.894 1.042 1.455 1.847 1.683.8.241 1.704.121 2.71-.358l1.366-.652zm-17.67-.878c1.475-.299 2.787-.2 3.937.295l.425 2.1c-.482-.271-1.086-.469-1.81-.595a5.906 5.906 0 00-2.093.031c-.55.112-.984.301-1.299.569-.313.277-.433.593-.361.948.077.382.3.619.668.71a3.4 3.4 0 00.611.138l.359.044.832.079.776.091c.109.007.344.042.706.104.312.054.542.109.69.167.553.237.919.46 1.097.666.315.403.52.838.614 1.304.176.868-.017 1.617-.58 2.245-.56.639-1.41 1.073-2.549 1.304a6.711 6.711 0 01-3.37-.162l-.397-1.96c1.123.413 2.245.507 3.365.28 1.11-.225 1.6-.66 1.47-1.304-.056-.28-.275-.469-.654-.567a3.62 3.62 0 00-.858-.132 40.766 40.766 0 01-1.126-.092c-.863-.088-1.641-.285-2.335-.591-.746-.325-1.21-.94-1.394-1.845-.19-.943.027-1.76.655-2.45.628-.691 1.501-1.15 2.621-1.377zm-11.932 5.668c-.543-.66-1.257-1.023-2.14-1.088-.874-.064-1.628.191-2.262.765-.634.574-.986 1.331-1.055 2.272-.069.94.169 1.74.712 2.401.544.66 1.252 1.023 2.126 1.087.883.065 1.642-.19 2.276-.764.624-.565.97-1.323 1.04-2.273.07-.949-.162-1.749-.697-2.4zM72.642 123c-.107 1.463-.686 2.652-1.737 3.568-1.052.935-2.323 1.347-3.814 1.238-1.482-.109-2.675-.703-3.579-1.781-.914-1.079-1.318-2.341-1.212-3.784.106-1.434.69-2.623 1.752-3.567 1.052-.934 2.319-1.348 3.8-1.239 1.491.11 2.689.704 3.593 1.782.904 1.079 1.303 2.34 1.197 3.783zm-17.277-6.056l1.951.649-3.158 9.487-6.952-2.314.582-1.749 5 1.665.641-1.924-3.862-1.286.573-1.721 3.862 1.286 1.363-4.093zm-13.945 4.56l-.954 1.576-7.172-4.344.955-1.576 2.712 1.643 4.226-6.976 1.759 1.066-4.225 6.976 2.7 1.635zM11.112 59.372l-.495 1.745-10.59.49.623-2.2 7.048-.141-5.9-4.017.436-1.539 7.133-.34-5.926-3.816.611-2.158 8.757 5.984-.494 1.745-7.014.285 5.81 3.962zm2.021-17.934c.84-.16 1.5-.611 1.982-1.355.475-.736.614-1.52.415-2.351-.2-.832-.695-1.504-1.487-2.016-.791-.512-1.607-.688-2.448-.528-.84.16-1.498.607-1.974 1.343-.48.744-.622 1.531-.422 2.363.196.819.694 1.487 1.494 2.004.8.517 1.613.697 2.44.54zm-3.58 1.223c-1.232-.796-1.997-1.875-2.296-3.236-.315-1.372-.067-2.686.745-3.941.807-1.248 1.9-2.009 3.28-2.285 1.386-.283 2.686-.032 3.901.754 1.208.78 1.97 1.864 2.288 3.248.315 1.372.07 2.682-.737 3.93-.812 1.255-1.908 2.02-3.288 2.296-1.38.275-2.678.02-3.893-.766zm11.97-14.778c.852.079 1.611-.172 2.28-.754.66-.575 1.01-1.29 1.049-2.144.039-.855-.251-1.638-.87-2.349-.62-.71-1.355-1.106-2.206-1.185-.852-.08-1.608.169-2.27.744-.667.582-1.02 1.3-1.06 2.154-.037.841.256 1.62.882 2.34.625.717 1.357 1.116 2.195 1.194zm-3.779.184c-.963-1.106-1.4-2.355-1.31-3.746.077-1.405.68-2.598 1.807-3.58 1.12-.976 2.381-1.405 3.784-1.287 1.41.11 2.59.712 3.54 1.804.944 1.084 1.377 2.336 1.3 3.755-.077 1.405-.676 2.595-1.796 3.57-1.128.982-2.393 1.415-3.796 1.297-1.402-.117-2.578-.721-3.529-1.813zm17.834-8.901l-3.378 1.61-4.303-9.025 3.379-1.61c1.46-.697 2.852-.843 4.173-.44 1.322.404 2.298 1.268 2.929 2.592.635 1.332.694 2.639.175 3.92-.513 1.268-1.505 2.252-2.975 2.953zm-5.031-6.637l2.717 5.7 1.366-.652c1.006-.48 1.67-1.102 1.99-1.867.326-.778.276-1.613-.15-2.507-.426-.894-1.042-1.455-1.847-1.683-.8-.241-1.704-.122-2.71.358l-1.366.651zm17.671.879c-1.475.298-2.787.2-3.937-.296l-.425-2.1c.482.272 1.086.47 1.81.595a5.91 5.91 0 002.093-.03c.55-.112.984-.302 1.299-.57.313-.277.433-.593.361-.947-.077-.383-.3-.62-.668-.71a3.32 3.32 0 00-.611-.139l-.359-.044-.832-.079-.776-.09a8.966 8.966 0 01-.706-.105 3.839 3.839 0 01-.69-.166c-.553-.238-.919-.46-1.097-.667a3.097 3.097 0 01-.614-1.304c-.176-.868.017-1.616.58-2.245.56-.638 1.41-1.073 2.548-1.303a6.706 6.706 0 013.37.162l.398 1.96c-1.123-.414-2.245-.507-3.365-.28-1.11.225-1.6.66-1.47 1.303.056.28.275.47.654.567.228.07.514.115.857.133.464.032.84.063 1.127.092.863.087 1.641.284 2.335.59.746.326 1.21.94 1.394 1.846.19.943-.027 1.76-.655 2.45-.628.69-1.501 1.15-2.621 1.377zM60.15 7.74c.544.66 1.257 1.022 2.14 1.087.874.064 1.628-.19 2.262-.765.634-.574.985-1.33 1.055-2.271.069-.94-.169-1.74-.712-2.401-.544-.66-1.252-1.023-2.126-1.087-.883-.065-1.642.19-2.276.764-.624.565-.97 1.322-1.04 2.272-.07.95.162 1.75.697 2.4zm-2.791-2.555c.107-1.462.686-2.651 1.737-3.567C60.148.683 61.419.27 62.91.38c1.482.108 2.675.702 3.579 1.78.914 1.08 1.318 2.341 1.212 3.785-.106 1.434-.69 2.623-1.752 3.566-1.052.935-2.319 1.348-3.8 1.24-1.491-.11-2.689-.704-3.593-1.783-.904-1.078-1.303-2.34-1.197-3.783zm17.277 6.057l-1.951-.65 3.158-9.487 6.952 2.315-.582 1.748-5-1.665-.641 1.925 3.862 1.286-.573 1.72L76 7.15l-1.363 4.093zM88.58 6.681l.955-1.576 7.172 4.344-.955 1.576-2.712-1.642-4.226 6.976-1.759-1.066 4.225-6.976-2.7-1.636z" fill="#CFA56F"/><circle cx="11.495" cy="93.397" r="2.874" fill="#CFA56F"/><circle cx="113.513" cy="34.485" r="2.874" fill="#CFA56F"/></svg>