<svg width="1360" height="152" fill="none" xmlns="http://www.w3.org/2000/svg"><path d="M59.761 149.836h-8.36L.405 2.7h10.868l44.726 131.043L95.709 2.282h8.151l39.919 131.461L188.505 2.7h10.659l-50.996 147.136h-8.778L99.889 19.838 59.761 149.836zm196.664-26.543c12.122 12.679 27.031 19.019 44.726 19.019s32.604-6.34 44.726-19.019c12.122-12.819 18.183-28.633 18.183-47.443 0-18.95-6.061-34.764-18.183-47.443-12.122-12.68-27.031-19.019-44.726-19.019s-32.604 6.34-44.726 19.019c-12.122 12.68-18.183 28.494-18.183 47.443 0 18.81 6.061 34.624 18.183 47.443zm44.726 28.215c-20.761 0-38.108-7.176-52.041-21.527-13.794-14.351-20.691-32.395-20.691-54.131 0-21.457 6.897-39.431 20.691-53.922C263.183 7.438 280.53.192 301.151.192c20.482 0 37.759 7.245 51.832 21.736 13.933 14.351 20.9 32.325 20.9 53.922 0 21.736-6.967 39.78-20.9 54.131-13.933 14.351-31.211 21.527-51.832 21.527zm144.566-28.215c12.122 12.679 27.031 19.019 44.726 19.019s32.604-6.34 44.726-19.019c12.122-12.819 18.183-28.633 18.183-47.443 0-18.95-6.061-34.764-18.183-47.443-12.122-12.68-27.031-19.019-44.726-19.019s-32.604 6.34-44.726 19.019c-12.122 12.68-18.183 28.494-18.183 47.443 0 18.81 6.061 34.624 18.183 47.443zm44.726 28.215c-20.761 0-38.108-7.176-52.041-21.527-13.794-14.351-20.691-32.395-20.691-54.131 0-21.457 6.897-39.431 20.691-53.922C452.475 7.438 469.822.192 490.443.192c20.482 0 37.759 7.245 51.832 21.736 13.933 14.351 20.9 32.325 20.9 53.922 0 21.736-6.967 39.78-20.9 54.131-13.933 14.351-31.211 21.527-51.832 21.527zM658.626 149h-45.353V2.7h45.353c23.687 0 42.706 6.758 57.057 20.273 14.491 13.655 21.736 31.28 21.736 52.877s-7.245 39.222-21.736 52.877C701.332 142.242 682.313 149 658.626 149zM622.887 11.687v128.326h34.067c21.736 0 38.944-5.852 51.623-17.556 12.679-11.704 19.019-27.24 19.019-46.607s-6.34-34.903-19.019-46.607c-12.679-11.704-29.887-17.556-51.623-17.556h-34.067zm206.37 139.821c-10.45 0-20.552-1.463-30.305-4.389-9.754-3.065-17.487-6.827-23.199-11.286v-11.077c5.434 4.598 12.888 8.708 22.363 12.331 9.196 3.483 19.297 5.225 30.305 5.225 12.54 0 22.92-2.856 31.141-8.569 8.22-5.713 12.331-13.376 12.331-22.99 0-7.663-2.787-14.142-8.36-19.437-2.508-2.23-5.852-4.25-10.032-6.061a85.08 85.08 0 00-11.704-4.598c-1.951-.697-6.549-2.02-13.794-3.971l-15.675-4.598c-5.016-1.95-9.266-3.762-12.749-5.434-6.549-3.344-11.286-7.245-14.212-11.704-2.926-4.598-4.598-10.798-5.016-18.601 0-10.31 4.249-18.88 12.749-25.707 8.638-6.967 20.551-10.45 35.739-10.45 16.859 0 31.628 4.11 44.308 12.331v10.241c-13.237-8.917-27.867-13.376-43.89-13.376-12.54 0-22.224 2.578-29.051 7.733-6.828 5.016-10.241 11.495-10.241 19.437-.697 7.245 3.204 14.073 11.704 20.482 1.672 1.115 4.389 2.438 8.151 3.971 3.901 1.533 6.897 2.578 8.987 3.135l10.032 2.926 4.389 1.254 14.212 4.389c3.065.836 7.315 2.647 12.749 5.434 4.876 2.23 8.708 4.737 11.495 7.524 6.688 6.688 10.032 15.048 10.032 25.08 0 12.819-5.086 22.851-15.257 30.096-10.311 7.106-22.712 10.659-37.202 10.659zm120.86-28.215c12.122 12.679 27.031 19.019 44.726 19.019 17.697 0 32.607-6.34 44.727-19.019 12.12-12.819 18.18-28.633 18.18-47.443 0-18.95-6.06-34.764-18.18-47.443-12.12-12.68-27.03-19.019-44.727-19.019-17.695 0-32.604 6.34-44.726 19.019-12.122 12.68-18.183 28.494-18.183 47.443 0 18.81 6.061 34.624 18.183 47.443zm44.726 28.215c-20.76 0-38.107-7.176-52.041-21.527-13.794-14.351-20.691-32.395-20.691-54.131 0-21.457 6.897-39.431 20.691-53.922C956.875 7.438 974.222.192 994.843.192c20.487 0 37.757 7.245 51.837 21.736 13.93 14.351 20.9 32.325 20.9 53.922 0 21.736-6.97 39.78-20.9 54.131-13.94 14.351-31.22 21.527-51.837 21.527zM1127.29 149h-9.62V2.7h96.77v8.987h-87.15v56.012h72.31v8.987h-72.31V149zm179.57 0h-9.62V11.687h-52.46V2.7h114.54v8.987h-52.46V149z" fill="#F0F0F0"/></svg>