<svg width="76" height="76" viewBox="0 0 76 76" fill="none" xmlns="http://www.w3.org/2000/svg"><circle cx="38" cy="38" r="38" fill="#CFA56F"/><path d="M25.592 37h-1.728v-9.312L21.416 29v-1.712l2.64-1.488h1.536V37zm8.813-5.952c.683.224 1.222.587 1.616 1.088a2.69 2.69 0 01.608 1.744c0 1.035-.421 1.845-1.264 2.432-.842.597-1.877.896-3.104.896-1.226 0-2.266-.299-3.12-.896-.842-.587-1.264-1.397-1.264-2.432 0-.661.203-1.243.608-1.744.406-.501.95-.864 1.632-1.088a2.927 2.927 0 01-1.248-.976 2.477 2.477 0 01-.448-1.456c0-.885.363-1.61 1.088-2.176.726-.565 1.643-.848 2.752-.848 1.099 0 2.011.283 2.736.848.726.565 1.088 1.29 1.088 2.176 0 .544-.149 1.03-.448 1.456a2.81 2.81 0 01-1.232.976zm-3.696-1.056c.416.32.934.48 1.552.48.619 0 1.131-.16 1.536-.48.406-.32.608-.73.608-1.232 0-.501-.202-.912-.608-1.232-.405-.32-.917-.48-1.536-.48-.618 0-1.136.16-1.552.48-.405.32-.608.73-.608 1.232 0 .501.203.912.608 1.232zm3.376 5.168c.491-.363.736-.827.736-1.392s-.245-1.03-.736-1.392c-.469-.363-1.077-.544-1.824-.544-.736 0-1.349.181-1.84.544-.49.363-.736.827-.736 1.392s.246 1.03.736 1.392c.502.373 1.115.56 1.84.56.715 0 1.323-.187 1.824-.56zm8.954 2.048c-1.419 0-2.56-.56-3.424-1.68-.854-1.141-1.28-2.517-1.28-4.128 0-1.6.426-2.97 1.28-4.112.864-1.13 2.005-1.696 3.424-1.696 1.44 0 2.581.565 3.424 1.696.864 1.13 1.296 2.501 1.296 4.112 0 1.621-.432 2.997-1.296 4.128-.843 1.12-1.984 1.68-3.424 1.68zm0-1.648c.885 0 1.6-.4 2.144-1.2.544-.8.816-1.787.816-2.96s-.272-2.16-.816-2.96c-.544-.8-1.259-1.2-2.144-1.2-.875 0-1.584.405-2.128 1.216-.544.8-.816 1.781-.816 2.944 0 1.152.272 2.139.816 2.96.544.8 1.253 1.2 2.128 1.2zm9.936-8.512a1.348 1.348 0 00-1.008-.432c-.394 0-.73.144-1.008.432a1.392 1.392 0 00-.416 1.024c0 .405.14.747.416 1.024.278.277.614.416 1.008.416.395 0 .731-.139 1.008-.416.278-.277.416-.619.416-1.024s-.138-.747-.416-1.024zm-3.504 1.024c0-.672.246-1.253.737-1.744a2.402 2.402 0 011.76-.736c.671 0 1.253.245 1.743.736.502.501.753 1.083.753 1.744s-.251 1.243-.752 1.744a2.41 2.41 0 01-1.745.72c-.672 0-1.258-.24-1.76-.72-.49-.49-.736-1.072-.736-1.744zM35.174 56c-.252 0-.5-.11-.663-.321a.785.785 0 01.166-1.123l2.426-1.763-2.426-1.764a.785.785 0 01-.166-1.123.846.846 0 011.16-.16l3.31 2.405c.208.151.33.39.33.642 0 .251-.122.49-.33.641l-3.31 2.405a.847.847 0 01-.497.16z" fill="#fff"/><path d="M37.663 53.724a65.02 65.02 0 01-6.97-.352C27.72 53.069 18 51.782 18 47.934c0-1.57 1.604-2.882 4.765-3.898.52-.162 1.077.246 1.077.79a.82.82 0 01-.65.81c-2.621.852-3.553 1.77-3.553 2.298 0 1.102 3.482 3.004 11.224 3.792 2.094.228 4.38.344 6.8.344.453 0 .82.37.82.827a.824.824 0 01-.82.827zm5.773-.414a.814.814 0 01-.812-.745.814.814 0 01.746-.876c8.397-.685 12.31-2.685 12.31-3.822 0-.524-.944-1.435-3.606-2.28a.813.813 0 11.494-1.549c3.147.998 4.743 2.286 4.743 3.829 0 4.005-10.569 5.177-13.809 5.442l-.066.001z" fill="#fff"/></svg>