<svg width="76" height="76" viewBox="0 0 76 76" fill="none" xmlns="http://www.w3.org/2000/svg"><path d="M58.667 27.212l5.086-7.516a1.029 1.029 0 00-.501-1.541l-8.533-3.091-.303-9.07a1.028 1.028 0 00-1.31-.952l-8.72 2.514L38.81.396a1.028 1.028 0 00-1.62 0l-5.577 7.16-8.719-2.514a1.028 1.028 0 00-1.311.953l-.303 9.069-8.533 3.09a1.028 1.028 0 00-.5 1.542l5.086 7.516-5.086 7.515a1.029 1.029 0 00.5 1.541l8.533 3.09.303 9.07a1.028 1.028 0 001.311.954l.182-.053-9.07 19.48a1.026 1.026 0 001.108 1.445l7.447-1.3 3.798 6.535c.185.317.523.511.888.511l.047-.001c.382-.018.723-.246.884-.593l9.772-20.99c.017.002.033.006.05.006.047 0 .091-.01.136-.015l7.938 18.428a1.029 1.029 0 001.816.135l3.986-6.423 7.405 1.516a1.028 1.028 0 001.15-1.413l-7.454-17.305.128.036a1.028 1.028 0 001.311-.952l.303-9.07 8.533-3.091a1.028 1.028 0 00.5-1.541l-5.085-7.515zm-31.52 45.544l-3.17-5.454a1.03 1.03 0 00-1.064-.495l-6.214 1.086 8.993-19.319 5.921-1.707 4.749 6.096-9.215 19.793zm30.619-7.1l-6.18-1.266c-.423-.085-.851.1-1.078.465l-3.326 5.36-7.47-17.345 4.674-6.003 6.037 1.741 7.343 17.048zm-4.4-27.992a1.027 1.027 0 00-.676.932l-.282 8.447-8.12-2.343a1.03 1.03 0 00-1.095.356L38 51.724l-5.193-6.668a1.027 1.027 0 00-1.095-.356l-8.12 2.342-.283-8.446a1.027 1.027 0 00-.676-.932l-7.946-2.878 4.737-6.999a1.027 1.027 0 000-1.151l-4.737-7 7.946-2.878c.394-.143.662-.511.676-.931l.283-8.447 8.12 2.343a1.03 1.03 0 001.095-.356L38 2.699l5.193 6.668c.258.332.69.47 1.095.356l8.12-2.343.282 8.447c.014.42.282.788.677.931l7.946 2.879-4.737 6.999a1.027 1.027 0 000 1.151l4.737 6.999-7.946 2.878zM38 14.035c-7.265 0-13.176 5.911-13.176 13.177 0 7.264 5.91 13.175 13.176 13.175 7.265 0 13.175-5.91 13.175-13.175 0-7.266-5.91-13.177-13.175-13.177zm0 24.298c-6.133 0-11.122-4.989-11.122-11.121 0-6.133 4.99-11.123 11.122-11.123s11.121 4.99 11.121 11.123c0 6.132-4.989 11.12-11.121 11.12z" fill="#CFA56F"/></svg>