<svg width="655" height="216" viewBox="0 0 655 216" fill="none" xmlns="http://www.w3.org/2000/svg"><path d="M654.5 108c0 14.69-9.028 28.767-25.544 41.644-16.51 12.872-40.431 24.486-70.035 34.249C499.718 203.416 417.898 215.5 327.5 215.5s-172.218-12.084-231.42-31.607c-29.605-9.763-53.526-21.377-70.036-34.249C9.528 136.767.5 122.69.5 108c0-14.69 9.028-28.767 25.544-41.644 16.51-12.872 40.431-24.486 70.035-34.249C155.282 12.584 237.102.5 327.5.5s172.218 12.084 231.421 31.607c29.604 9.763 53.525 21.377 70.035 34.249C645.472 79.233 654.5 93.31 654.5 108z" stroke="url(#paint0_linear_361_3821)"/><defs><linearGradient id="paint0_linear_361_3821" x1="327.5" y1="41.766" x2="327.5" y2="216" gradientUnits="userSpaceOnUse"><stop stop-color="#F0F0F0" stop-opacity="0"/><stop offset="1" stop-color="#F0F0F0"/></linearGradient></defs></svg>