<svg width="76" height="76" viewBox="0 0 76 76" fill="none" xmlns="http://www.w3.org/2000/svg"><path d="M75.486 21.65L48.71 6.19a1.026 1.026 0 00-.514-.137H33.031a1.027 1.027 0 100 2.054h11.331l-23.22 13.406H1.027a1.027 1.027 0 100 2.054H20.39v13.406H8.127a1.027 1.027 0 100 2.054H20.39v13.406H1.027a1.027 1.027 0 100 2.054h20.115l26.54 15.322a1.025 1.025 0 001.027 0l26.777-15.46c.318-.183.514-.522.514-.889V22.54c0-.367-.196-.706-.514-.89zM48.196 8.266L72.918 22.54l-7.831 4.521-24.724-14.274 7.831-4.521zm-9.886 5.706l24.724 14.275-4.954 2.86-24.724-14.274 4.954-2.86zm25.751 16.054v9.49l-4.954 2.86v-9.49l4.954-2.86zM47.168 67.14L22.445 52.867V24.32l24.723 14.274V67.14zm1.027-30.327L23.471 22.54l7.831-4.521 24.724 14.274-7.83 4.521zm25.75 16.053L49.223 67.141V38.593l7.831-4.521v10.082a1.027 1.027 0 001.54.89l7.009-4.046c.317-.183.513-.523.513-.89V28.84l7.83-4.521v28.548zM7.1 7.08c0-.568.46-1.027 1.027-1.027H24.07a1.027 1.027 0 110 2.054H8.127c-.568 0-1.027-.46-1.027-1.027z" fill="#CFA56F"/></svg>