<svg width="15" height="15" viewBox="0 0 15 15" fill="none" xmlns="http://www.w3.org/2000/svg"><path d="M11.25 0h-7.5A3.761 3.761 0 000 3.75v7.5A3.762 3.762 0 003.75 15h7.5A3.761 3.761 0 0015 11.25v-7.5A3.761 3.761 0 0011.25 0zm2.5 11.25c0 1.378-1.121 2.5-2.5 2.5h-7.5a2.503 2.503 0 01-2.5-2.5v-7.5c0-1.379 1.122-2.5 2.5-2.5h7.5c1.379 0 2.5 1.121 2.5 2.5v7.5z" fill="#fff"/><path d="M11.563 4.375a.938.938 0 100-1.875.938.938 0 000 1.875zM7.5 3.75a3.75 3.75 0 10-.001 7.499 3.75 3.75 0 000-7.499zm0 6.25a2.5 2.5 0 110-5 2.5 2.5 0 010 5z" fill="#fff"/></svg>