<svg width="90" height="90" viewBox="0 0 90 90" fill="none" xmlns="http://www.w3.org/2000/svg"><g clip-path="url(#clip0_361_2465)" fill="#CFA56F"><path d="M80.865 41.057c.825-4.235-7.236-8.176-15.24-9.734a43.995 43.995 0 00-4.032-.591 6.253 6.253 0 00-1.275-2.945c-1.178-1.518-2.816-2.367-4.735-2.455l-16.265-.749a.866.866 0 00-.57.181L8.193 48.49a.865.865 0 00-.153 1.214l18.096 23.304a.864.864 0 001.213.152l30.555-23.726a.866.866 0 00.316-.507l1.133-5.467c1.201.344 2.447.65 3.733.9 8.004 1.56 16.954.931 17.779-3.303zm-24.273 7.207l-29.62 23L9.936 49.326l29.62-23 15.947.733c1.418.066 2.579.668 3.45 1.789.87 1.12 1.165 2.394.877 3.785l-1.783 8.608c-1.471-.501-2.833-1.068-4.029-1.69a5.893 5.893 0 00-.475-6.503 5.891 5.891 0 00-8.257-1.039 5.892 5.892 0 00-1.04 8.258 5.892 5.892 0 008.694.664c1.395.75 3.003 1.427 4.754 2.014l-1.102 5.319zM51.34 33.302c.308.224.591.492.836.807a4.162 4.162 0 01.346 4.574c-2.065-1.323-3.18-2.697-2.98-3.725.152-.78 1.036-1.324 1.798-1.656zm-2.08-.777c-.93.716-1.297 1.495-1.415 2.102-.196 1.005.131 2.056.94 3.096.597.77 1.474 1.533 2.582 2.27a4.158 4.158 0 01-5.755-.787 4.16 4.16 0 01.733-5.83 4.136 4.136 0 012.916-.851zm10.444 9.237l1.819-8.779c.036-.172.057-.342.08-.513 1.212.127 2.45.309 3.69.55 8.73 1.7 14.317 5.427 13.874 7.707-.445 2.28-7.022 3.637-15.751 1.937a42.407 42.407 0 01-3.712-.902z"/><path d="M26.51 48.332c.936-.726 1.964-.968 3.085-.724l-1.325-1.706 1.194-.927 7.11 9.155-1.194.928-4.313-5.554c-1.306-.587-2.37-.56-3.191.077-1.251.971-1.097 2.462.463 4.471.962 1.239 2.067 2.153 3.316 2.744L30.27 57.87c-1.218-.655-2.342-1.646-3.372-2.973-1.04-1.34-1.596-2.59-1.666-3.75-.058-1.17.368-2.109 1.278-2.815zm11.372 4.783l-7.11-9.156 1.195-.927 4.666 6.009c.998.399 1.852.324 2.56-.226 1.2-.932 1.05-2.365-.452-4.298a9.621 9.621 0 00-3.107-2.632l1.346-1.045c1.085.536 2.142 1.467 3.172 2.794 1.02 1.314 1.555 2.55 1.603 3.708.058 1.17-.361 2.104-1.259 2.8-.783.609-1.62.823-2.51.643l1.09 1.402-1.194.928z"/></g><defs><clipPath id="clip0_361_2465"><path fill="#fff" transform="rotate(52.17 25.173 51.676)" d="M0 0h64v64H0z"/></clipPath></defs></svg>