<svg width="16" height="17" viewBox="0 0 16 17" fill="none" xmlns="http://www.w3.org/2000/svg"><path d="M8.217 0C3.832 0 1.5 2.986 1.5 6.241c0 1.51.794 3.393 2.065 3.99.193.093.298.053.341-.137.038-.144.205-.84.286-1.169a.314.314 0 00-.068-.295c-.422-.519-.757-1.463-.757-2.35 0-2.27 1.7-4.475 4.59-4.475 2.5 0 4.25 1.726 4.25 4.194 0 2.79-1.39 4.719-3.195 4.719-.999 0-1.743-.833-1.507-1.864.285-1.227.844-2.547.844-3.432 0-.794-.422-1.45-1.284-1.45-1.017 0-1.842 1.07-1.842 2.506 0 .913.304 1.53.304 1.53l-1.193 5.124c-.316 1.365.043 3.577.074 3.767.02.105.13.138.192.052.1-.138 1.315-1.982 1.656-3.314.124-.486.633-2.455.633-2.455.335.643 1.302 1.182 2.332 1.182 3.065 0 5.279-2.862 5.279-6.413C14.489 2.547 11.746 0 8.217 0z" fill="#4E4E4E"/></svg>