<svg width="19" height="16" viewBox="0 0 19 16" fill="none" xmlns="http://www.w3.org/2000/svg"><path d="M19 1.894a7.9 7.9 0 01-2.244.638A3.992 3.992 0 0018.469.3a7.62 7.62 0 01-2.47.978A3.84 3.84 0 0013.154 0C10.997 0 9.26 1.814 9.26 4.038c0 .32.026.628.09.92C6.114 4.796 3.249 3.187 1.324.737a4.178 4.178 0 00-.533 2.04c0 1.399.694 2.638 1.73 3.356a3.744 3.744 0 01-1.76-.498v.045c0 1.962 1.35 3.591 3.12 3.967-.316.09-.662.132-1.02.132-.25 0-.502-.014-.738-.068.505 1.598 1.937 2.774 3.64 2.812A7.653 7.653 0 010 14.188 10.688 10.688 0 005.976 16c7.167 0 11.086-6.154 11.086-11.488 0-.178-.006-.35-.014-.522A7.933 7.933 0 0019 1.894z" fill="#4E4E4E"/></svg>