<svg width="18" height="15" viewBox="0 0 18 15" fill="none" xmlns="http://www.w3.org/2000/svg"><path fill-rule="evenodd" clip-rule="evenodd" d="M9.587 11.755c-.69.668-1.374 1.324-2.052 1.986-.237.232-.503.36-.843.343-.232-.013-.362-.114-.434-.333-.519-1.6-1.046-3.198-1.562-4.8-.05-.156-.124-.232-.283-.28A343.801 343.801 0 01.75 7.535a2.089 2.089 0 01-.539-.247c-.25-.168-.287-.443-.062-.64.207-.183.455-.342.712-.444 1.495-.588 2.999-1.158 4.5-1.733 3.808-1.46 7.617-2.92 11.426-4.382.725-.278 1.281.114 1.206.892-.048.498-.178.988-.282 1.479-.828 3.88-1.655 7.76-2.487 11.639-.197.921-.848 1.162-1.611.603-1.278-.936-2.555-1.875-3.832-2.812-.06-.044-.124-.086-.194-.135zM6.72 12.933l.043-.011c.008-.037.02-.072.023-.108.082-.88.168-1.759.24-2.64a.645.645 0 01.232-.468c1.178-1.046 2.348-2.1 3.521-3.15 1.299-1.163 2.598-2.326 3.892-3.494.08-.072.113-.195.168-.294-.122-.013-.252-.062-.363-.034-.15.04-.294.126-.428.21-2.866 1.794-5.73 3.59-8.598 5.38-.162.101-.192.187-.13.364.211.603.403 1.212.603 1.82l.797 2.425z" fill="#fff"/></svg>