<svg width="76" height="84" viewBox="0 0 76 84" fill="none" xmlns="http://www.w3.org/2000/svg"><g clip-path="url(#clip0_521_347)"><path d="M75.39 76.05l-5.552-3.889c-1.625-1.139-3.381-1.693-5.367-1.693H31.626c-1.34-4.173-5.256-7.204-9.87-7.204-1.13 0-2.216.189-3.236.525V15.228C18.52 11.243 15.278 8 11.292 8H1.199a1.027 1.027 0 100 2.054h10.093a5.18 5.18 0 015.174 5.174v49.505c-3.034 1.81-5.077 5.117-5.077 8.9C11.39 79.348 16.04 84 21.757 84c5.716 0 10.367-4.65 10.367-10.368 0-.375-.022-.745-.06-1.11H64.47c1.572 0 2.903.42 4.19 1.322l5.551 3.888a1.025 1.025 0 001.43-.252 1.027 1.027 0 00-.252-1.43zm-53.633 5.896c-4.584 0-8.314-3.73-8.314-8.314s3.73-8.314 8.314-8.314 8.313 3.73 8.313 8.314-3.729 8.314-8.313 8.314zm0-13.18a4.872 4.872 0 00-4.867 4.866 4.872 4.872 0 004.867 4.867 4.872 4.872 0 004.866-4.867 4.872 4.872 0 00-4.866-4.867zm0 7.679a2.816 2.816 0 01-2.813-2.813 2.816 2.816 0 012.813-2.813 2.816 2.816 0 012.812 2.813 2.816 2.816 0 01-2.812 2.813zm2.85-37.338h3.036v23.211c0 .568.46 1.027 1.027 1.027h37.083c.567 0 1.027-.46 1.027-1.027V39.107h3.036c.567 0 1.027-.46 1.027-1.027v-9.547c0-.568-.46-1.027-1.027-1.027h-45.21c-.566 0-1.026.46-1.026 1.027v9.547c0 .567.46 1.027 1.027 1.027zM64.725 61.29H29.697V39.107h35.028V61.29zM25.634 29.56h43.155v7.493H25.634V29.56z" fill="#CFA56F"/></g><path d="M24.411 11.091L38.935.205a1.028 1.028 0 011.232 1.644L28.11 10.886H70a1.027 1.027 0 010 2.055H28.11l12.057 9.037a1.027 1.027 0 11-1.232 1.643L24.411 12.735a1.027 1.027 0 010-1.644z" fill="#CFA56F"/><defs><clipPath id="clip0_521_347"><path fill="#fff" transform="translate(0 8)" d="M0 0h76v76H0z"/></clipPath></defs></svg>