<svg width="19" height="19" viewBox="0 0 19 19" fill="none" xmlns="http://www.w3.org/2000/svg"><g clip-path="url(#clip0_521_136)" fill="#4E4E4E"><path d="M16.625 19h-1.583v-3.993a2.344 2.344 0 00-2.341-2.34H6.299a2.344 2.344 0 00-2.34 2.34V19H2.374v-3.993a3.93 3.93 0 013.924-3.924H12.7a3.93 3.93 0 013.924 3.924V19zM9.5 9.5a4.75 4.75 0 110-9.5 4.75 4.75 0 010 9.5zm0-7.917a3.167 3.167 0 100 6.334 3.167 3.167 0 000-6.334z"/></g><defs><clipPath id="clip0_521_136"><path fill="#fff" d="M0 0h19v19H0z"/></clipPath></defs></svg>