<svg width="76" height="76" viewBox="0 0 76 76" fill="none" xmlns="http://www.w3.org/2000/svg"><circle cx="38" cy="38" r="38" fill="#CFA56F"/><path d="M24.034 55h-4.816v-9.8h4.452c.887 0 1.587.215 2.1.644.523.43.784 1.017.784 1.764 0 .485-.121.905-.364 1.26a1.999 1.999 0 01-.938.756 2.436 2.436 0 011.498.868c.392.467.588 1.05.588 1.75 0 .83-.299 1.498-.896 2.002-.588.504-1.39.756-2.408.756zm-3.276-4.494v3.08h2.996c.597 0 1.064-.135 1.4-.406.345-.28.518-.667.518-1.162 0-.485-.168-.859-.504-1.12-.336-.261-.807-.392-1.414-.392h-2.996zm0-3.892v2.534h2.646c.513 0 .91-.107 1.19-.322.29-.224.434-.541.434-.952 0-.41-.145-.723-.434-.938-.28-.215-.677-.322-1.19-.322h-2.646zM30.806 55h-1.512v-6.874h1.512V55zm-.756-8.106a.96.96 0 01-.686-.266.959.959 0 01-.266-.686c0-.27.088-.5.266-.686a.933.933 0 01.686-.28c.261 0 .48.093.658.28.187.187.28.415.28.686 0 .27-.093.5-.28.686a.894.894 0 01-.658.266zm3.714 9.996h-1.456v-3.22h.896c.364-.55.616-1.227.756-2.03.14-.775.219-1.946.238-3.514h5.474v5.544h1.19v3.22h-1.428V55h-5.67v1.89zm1.036-3.22h3.36v-4.214h-2.576c0 1.783-.262 3.187-.784 4.214zm7.085-2.114c0-1.036.327-1.895.98-2.576.663-.69 1.512-1.036 2.548-1.036.71 0 1.311.187 1.806.56.97.69 1.456 1.727 1.456 3.108v.392H43.41c.093.579.368 1.031.826 1.358.466.327 1.054.49 1.764.49.784 0 1.521-.205 2.212-.616v1.274c-.635.448-1.48.672-2.534.672-1.055 0-1.956-.336-2.702-1.008-.728-.672-1.092-1.545-1.092-2.618zm1.54-.7h3.724a1.718 1.718 0 00-.49-1.134c-.317-.336-.756-.504-1.316-.504-.532 0-.976.159-1.33.476a1.735 1.735 0 00-.588 1.162zm10.252 2.996a2.19 2.19 0 001.61-.658c.429-.43.644-.975.644-1.638 0-.653-.215-1.195-.644-1.624a2.19 2.19 0 00-1.61-.658c-.644 0-1.186.22-1.624.658-.43.43-.644.97-.644 1.624 0 .663.214 1.209.644 1.638.438.439.98.658 1.624.658zm0 1.33c-1.102 0-2.007-.35-2.716-1.05-.71-.7-1.064-1.559-1.064-2.576 0-1.008.354-1.862 1.064-2.562.709-.7 1.614-1.05 2.716-1.05 1.082 0 1.983.35 2.702 1.05.709.7 1.064 1.554 1.064 2.562 0 1.008-.355 1.867-1.064 2.576-.72.7-1.62 1.05-2.702 1.05z" fill="#fff"/><g clip-path="url(#clip0_562_348)" fill="#fff"><path d="M40.141 21.156H28.735A2.743 2.743 0 0026 23.892v9.217a2.743 2.743 0 002.735 2.735h11.406a2.743 2.743 0 002.735-2.735v-9.218a2.726 2.726 0 00-2.735-2.735zm8.835 1.504c-.164.028-.328.11-.465.192l-4.267 2.461v6.346l4.294 2.462c.794.465 1.778.191 2.243-.602a1.67 1.67 0 00.22-.82v-8.452a1.646 1.646 0 00-2.025-1.587z"/></g><defs><clipPath id="clip0_562_348"><path fill="#fff" transform="translate(26 16)" d="M0 0h25v25H0z"/></clipPath></defs></svg>