<svg width="76" height="76" viewBox="0 0 76 76" fill="none" xmlns="http://www.w3.org/2000/svg">
<circle cx="38" cy="38" r="38" fill="#CFA56F"/>
<path d="M14.5107 56V44.3636H18.5788C19.3894 44.3636 20.058 44.5038 20.5845 44.7841C21.111 45.0606 21.5031 45.4337 21.7607 45.9034C22.0182 46.3693 22.147 46.8864 22.147 47.4545C22.147 47.9545 22.058 48.3674 21.88 48.6932C21.7057 49.0189 21.4747 49.2765 21.1868 49.4659C20.9027 49.6553 20.594 49.7955 20.2607 49.8864V50C20.6167 50.0227 20.9747 50.1477 21.3345 50.375C21.6944 50.6023 21.9955 50.928 22.2379 51.3523C22.4804 51.7765 22.6016 52.2955 22.6016 52.9091C22.6016 53.4924 22.469 54.017 22.2038 54.483C21.9387 54.9489 21.5201 55.3182 20.9482 55.5909C20.3762 55.8636 19.6319 56 18.7152 56H14.5107ZM15.9197 54.75H18.7152C19.6357 54.75 20.2891 54.572 20.6754 54.2159C21.0656 53.8561 21.2607 53.4205 21.2607 52.9091C21.2607 52.5152 21.1603 52.1515 20.9595 51.8182C20.7588 51.4811 20.4728 51.2121 20.1016 51.0114C19.7304 50.8068 19.291 50.7045 18.7834 50.7045H15.9197V54.75ZM15.9197 49.4773H18.5334C18.9576 49.4773 19.3402 49.3939 19.6811 49.2273C20.0258 49.0606 20.2985 48.8258 20.4993 48.5227C20.7038 48.2197 20.8061 47.8636 20.8061 47.4545C20.8061 46.9432 20.6281 46.5095 20.272 46.1534C19.916 45.7936 19.3516 45.6136 18.5788 45.6136H15.9197V49.4773ZM26.076 54.0227L30.2805 47.2727H31.826V56H30.4851V49.25L26.3033 56H24.7351V47.2727H26.076V54.0227ZM33.3501 58.5V54.75H34.0774C34.2554 54.5644 34.4089 54.3636 34.5376 54.1477C34.6664 53.9318 34.7782 53.6761 34.8729 53.3807C34.9714 53.0814 35.0547 52.7178 35.1229 52.2898C35.1911 51.858 35.2517 51.3371 35.3047 50.7273L35.6001 47.2727H41.1456V54.75H42.4865V58.5H41.1456V56H34.6911V58.5H33.3501ZM35.6001 54.75H39.8047V48.5227H36.8501L36.6229 50.7273C36.5282 51.6402 36.4107 52.4375 36.2706 53.1193C36.1304 53.8011 35.907 54.3447 35.6001 54.75ZM47.9254 56.1818C47.0845 56.1818 46.3591 55.9962 45.7493 55.625C45.1432 55.25 44.6754 54.7273 44.3459 54.0568C44.0201 53.3826 43.8572 52.5985 43.8572 51.7045C43.8572 50.8106 44.0201 50.0227 44.3459 49.3409C44.6754 48.6553 45.1338 48.1212 45.7209 47.7386C46.3118 47.3523 47.0012 47.1591 47.7891 47.1591C48.2436 47.1591 48.6925 47.2348 49.1357 47.3864C49.5788 47.5379 49.9822 47.7841 50.3459 48.125C50.7095 48.4621 50.9993 48.9091 51.2152 49.4659C51.4311 50.0227 51.5391 50.7083 51.5391 51.5227V52.0909H44.8118V50.9318H50.1754C50.1754 50.4394 50.0769 50 49.88 49.6136C49.6868 49.2273 49.4103 48.9223 49.0504 48.6989C48.6944 48.4754 48.2739 48.3636 47.7891 48.3636C47.255 48.3636 46.7929 48.4962 46.4027 48.7614C46.0163 49.0227 45.719 49.3636 45.5107 49.7841C45.3023 50.2045 45.1982 50.6553 45.1982 51.1364V51.9091C45.1982 52.5682 45.3118 53.1269 45.5391 53.5852C45.7701 54.0398 46.0902 54.3864 46.4993 54.625C46.9084 54.8598 47.3838 54.9773 47.9254 54.9773C48.2777 54.9773 48.5959 54.928 48.88 54.8295C49.1679 54.7273 49.416 54.5758 49.6243 54.375C49.8326 54.1705 49.9936 53.9167 50.1072 53.6136L51.4027 53.9773C51.2663 54.4167 51.0372 54.803 50.7152 55.1364C50.3932 55.4659 49.9955 55.7235 49.522 55.9091C49.0485 56.0909 48.5163 56.1818 47.9254 56.1818ZM57.1243 56.1818C56.3364 56.1818 55.6451 55.9943 55.0504 55.6193C54.4595 55.2443 53.9974 54.7197 53.6641 54.0455C53.3345 53.3712 53.1697 52.5833 53.1697 51.6818C53.1697 50.7727 53.3345 49.9792 53.6641 49.3011C53.9974 48.6231 54.4595 48.0966 55.0504 47.7216C55.6451 47.3466 56.3364 47.1591 57.1243 47.1591C57.9122 47.1591 58.6016 47.3466 59.1925 47.7216C59.7872 48.0966 60.2493 48.6231 60.5788 49.3011C60.9122 49.9792 61.0788 50.7727 61.0788 51.6818C61.0788 52.5833 60.9122 53.3712 60.5788 54.0455C60.2493 54.7197 59.7872 55.2443 59.1925 55.6193C58.6016 55.9943 57.9122 56.1818 57.1243 56.1818ZM57.1243 54.9773C57.7228 54.9773 58.2152 54.8239 58.6016 54.517C58.9879 54.2102 59.2739 53.8068 59.4595 53.3068C59.6451 52.8068 59.7379 52.2652 59.7379 51.6818C59.7379 51.0985 59.6451 50.5549 59.4595 50.0511C59.2739 49.5473 58.9879 49.1402 58.6016 48.8295C58.2152 48.5189 57.7228 48.3636 57.1243 48.3636C56.5258 48.3636 56.0334 48.5189 55.647 48.8295C55.2607 49.1402 54.9747 49.5473 54.7891 50.0511C54.6035 50.5549 54.5107 51.0985 54.5107 51.6818C54.5107 52.2652 54.6035 52.8068 54.7891 53.3068C54.9747 53.8068 55.2607 54.2102 55.647 54.517C56.0334 54.8239 56.5258 54.9773 57.1243 54.9773Z" fill="white"/>
<g clip-path="url(#clip0_902_349)">
<path d="M40.1411 21.1562H28.7352C27.2309 21.1562 26 22.3871 26 23.8915V33.1092C26 34.6136 27.2309 35.8444 28.7352 35.8444H40.1411C41.6455 35.8444 42.8764 34.6136 42.8764 33.1092V23.8915C42.8764 22.3598 41.6455 21.1562 40.1411 21.1562Z" fill="white"/>
<path d="M48.9761 22.6603C48.812 22.6876 48.6479 22.7697 48.5111 22.8517L44.2441 25.3134V31.6592L48.5385 34.1209C49.3317 34.5859 50.3164 34.3124 50.7813 33.5191C50.9181 33.273 51.0002 32.9994 51.0002 32.6986V24.2467C51.0002 23.2347 50.0428 22.4141 48.9761 22.6603Z" fill="white"/>
</g>
<defs>
<clipPath id="clip0_902_349">
<rect width="25" height="25" fill="white" transform="translate(26 16)"/>
</clipPath>
</defs>
</svg>
