<svg width="76" height="76" viewBox="0 0 76 76" fill="none" xmlns="http://www.w3.org/2000/svg">
<circle cx="38" cy="38" r="38" fill="#CFA56F"/>
<path d="M17.6832 44.3636L21.1378 54.1591H21.2741L24.7287 44.3636H26.206L21.9332 56H20.4787L16.206 44.3636H17.6832ZM27.8366 56V47.2727H29.1776V56H27.8366ZM28.5185 45.8182C28.2571 45.8182 28.0317 45.7292 27.8423 45.5511C27.6567 45.3731 27.5639 45.1591 27.5639 44.9091C27.5639 44.6591 27.6567 44.4451 27.8423 44.267C28.0317 44.089 28.2571 44 28.5185 44C28.7798 44 29.0033 44.089 29.1889 44.267C29.3783 44.4451 29.473 44.6591 29.473 44.9091C29.473 45.1591 29.3783 45.3731 29.1889 45.5511C29.0033 45.7292 28.7798 45.8182 28.5185 45.8182ZM34.929 56.1818C34.2017 56.1818 33.5597 55.9981 33.0028 55.6307C32.446 55.2595 32.0104 54.7367 31.696 54.0625C31.3816 53.3845 31.2244 52.5833 31.2244 51.6591C31.2244 50.7424 31.3816 49.947 31.696 49.2727C32.0104 48.5985 32.4479 48.0777 33.0085 47.7102C33.5691 47.3428 34.2169 47.1591 34.9517 47.1591C35.5199 47.1591 35.9688 47.2538 36.2983 47.4432C36.6316 47.6288 36.8854 47.8409 37.0597 48.0795C37.2377 48.3144 37.3759 48.5076 37.4744 48.6591H37.5881V44.3636H38.929V56H37.6335V54.6591H37.4744C37.3759 54.8182 37.2358 55.0189 37.054 55.2614C36.8722 55.5 36.6127 55.714 36.2756 55.9034C35.9384 56.089 35.4896 56.1818 34.929 56.1818ZM35.1108 54.9773C35.6487 54.9773 36.1032 54.8371 36.4744 54.5568C36.8456 54.2727 37.1278 53.8807 37.321 53.3807C37.5142 52.8769 37.6108 52.2955 37.6108 51.6364C37.6108 50.9848 37.5161 50.4148 37.3267 49.9261C37.1373 49.4337 36.857 49.0511 36.4858 48.7784C36.1146 48.5019 35.6563 48.3636 35.1108 48.3636C34.5426 48.3636 34.0691 48.5095 33.6903 48.8011C33.3153 49.089 33.0331 49.4811 32.8438 49.9773C32.6581 50.4697 32.5653 51.0227 32.5653 51.6364C32.5653 52.2576 32.66 52.822 32.8494 53.3295C33.0426 53.8333 33.3267 54.2348 33.7017 54.5341C34.0805 54.8295 34.5502 54.9773 35.1108 54.9773ZM45.2301 56.1818C44.3892 56.1818 43.6638 55.9962 43.054 55.625C42.4479 55.25 41.9801 54.7273 41.6506 54.0568C41.3248 53.3826 41.1619 52.5985 41.1619 51.7045C41.1619 50.8106 41.3248 50.0227 41.6506 49.3409C41.9801 48.6553 42.4384 48.1212 43.0256 47.7386C43.6165 47.3523 44.3059 47.1591 45.0938 47.1591C45.5483 47.1591 45.9972 47.2348 46.4403 47.3864C46.8835 47.5379 47.2869 47.7841 47.6506 48.125C48.0142 48.4621 48.304 48.9091 48.5199 49.4659C48.7358 50.0227 48.8438 50.7083 48.8438 51.5227V52.0909H42.1165V50.9318H47.4801C47.4801 50.4394 47.3816 50 47.1847 49.6136C46.9915 49.2273 46.715 48.9223 46.3551 48.6989C45.9991 48.4754 45.5786 48.3636 45.0938 48.3636C44.5597 48.3636 44.0975 48.4962 43.7074 48.7614C43.321 49.0227 43.0237 49.3636 42.8153 49.7841C42.607 50.2045 42.5028 50.6553 42.5028 51.1364V51.9091C42.5028 52.5682 42.6165 53.1269 42.8438 53.5852C43.0748 54.0398 43.3949 54.3864 43.804 54.625C44.2131 54.8598 44.6884 54.9773 45.2301 54.9773C45.5824 54.9773 45.9006 54.928 46.1847 54.8295C46.4725 54.7273 46.7206 54.5758 46.929 54.375C47.1373 54.1705 47.2983 53.9167 47.4119 53.6136L48.7074 53.9773C48.571 54.4167 48.3419 54.803 48.0199 55.1364C47.6979 55.4659 47.3002 55.7235 46.8267 55.9091C46.3532 56.0909 45.821 56.1818 45.2301 56.1818ZM54.429 56.1818C53.6411 56.1818 52.9498 55.9943 52.3551 55.6193C51.7642 55.2443 51.3021 54.7197 50.9688 54.0455C50.6392 53.3712 50.4744 52.5833 50.4744 51.6818C50.4744 50.7727 50.6392 49.9792 50.9688 49.3011C51.3021 48.6231 51.7642 48.0966 52.3551 47.7216C52.9498 47.3466 53.6411 47.1591 54.429 47.1591C55.2169 47.1591 55.9063 47.3466 56.4972 47.7216C57.0919 48.0966 57.554 48.6231 57.8835 49.3011C58.2169 49.9792 58.3835 50.7727 58.3835 51.6818C58.3835 52.5833 58.2169 53.3712 57.8835 54.0455C57.554 54.7197 57.0919 55.2443 56.4972 55.6193C55.9063 55.9943 55.2169 56.1818 54.429 56.1818ZM54.429 54.9773C55.0275 54.9773 55.5199 54.8239 55.9062 54.517C56.2926 54.2102 56.5786 53.8068 56.7642 53.3068C56.9498 52.8068 57.0426 52.2652 57.0426 51.6818C57.0426 51.0985 56.9498 50.5549 56.7642 50.0511C56.5786 49.5473 56.2926 49.1402 55.9062 48.8295C55.5199 48.5189 55.0275 48.3636 54.429 48.3636C53.8305 48.3636 53.3381 48.5189 52.9517 48.8295C52.5653 49.1402 52.2794 49.5473 52.0938 50.0511C51.9081 50.5549 51.8153 51.0985 51.8153 51.6818C51.8153 52.2652 51.9081 52.8068 52.0938 53.3068C52.2794 53.8068 52.5653 54.2102 52.9517 54.517C53.3381 54.8239 53.8305 54.9773 54.429 54.9773Z" fill="white"/>
<g clip-path="url(#clip0_902_349)">
<path d="M40.1411 21.1562H28.7352C27.2309 21.1562 26 22.3871 26 23.8915V33.1092C26 34.6136 27.2309 35.8444 28.7352 35.8444H40.1411C41.6455 35.8444 42.8764 34.6136 42.8764 33.1092V23.8915C42.8764 22.3598 41.6455 21.1562 40.1411 21.1562Z" fill="white"/>
<path d="M48.9761 22.6603C48.812 22.6876 48.6479 22.7697 48.5111 22.8517L44.2441 25.3134V31.6592L48.5385 34.1209C49.3317 34.5859 50.3164 34.3124 50.7813 33.5191C50.9181 33.273 51.0002 32.9994 51.0002 32.6986V24.2467C51.0002 23.2347 50.0428 22.4141 48.9761 22.6603Z" fill="white"/>
</g>
<defs>
<clipPath id="clip0_902_349">
<rect width="25" height="25" fill="white" transform="translate(26 16)"/>
</clipPath>
</defs>
</svg>
